/* XPM */
static char * ark_xpm[] = {
"32 32 143 2",
"  	c None",
". 	c #020204",
"+ 	c #FEA654",
"@ 	c #FEAA5C",
"# 	c #FE0204",
"$ 	c #22160C",
"% 	c #FECE9C",
"& 	c #820204",
"* 	c #FE0604",
"= 	c #FEC694",
"- 	c #FAE2CC",
"; 	c #FEBE84",
"> 	c #F2E2CC",
", 	c #EE964C",
"' 	c #E69244",
") 	c #FAA254",
"! 	c #AA7254",
"~ 	c #FEAE64",
"{ 	c #CE660C",
"] 	c #D26E14",
"^ 	c #DA7A24",
"/ 	c #E28634",
"( 	c #C2723C",
"_ 	c #B26634",
": 	c #925E4C",
"< 	c #FAB274",
"[ 	c #FEC684",
"} 	c #F2D2AC",
"| 	c #4A423C",
"1 	c #BE5604",
"2 	c #C65E04",
"3 	c #CE6A14",
"4 	c #DE7A24",
"5 	c #E2822C",
"6 	c #9A522C",
"7 	c #863E1C",
"8 	c #7A321C",
"9 	c #824A3C",
"0 	c #FEF6EC",
"a 	c #FEEAD4",
"b 	c #4E4644",
"c 	c #FED6B4",
"d 	c #FED6AC",
"e 	c #C25A04",
"f 	c #C65A04",
"g 	c #D2721C",
"h 	c #DE7E2C",
"i 	c #964A2C",
"j 	c #823A1C",
"k 	c #762E1C",
"l 	c #6A2614",
"m 	c #FEEED4",
"n 	c #FEBA74",
"o 	c #FEDABC",
"p 	c #CE6614",
"q 	c #924E34",
"r 	c #FEEEDC",
"s 	c #FEE6CC",
"t 	c #FEB674",
"u 	c #FEC284",
"v 	c #FECA94",
"w 	c #DA7624",
"x 	c #D26E1C",
"y 	c #FEDEBC",
"z 	c #FECEA4",
"A 	c #FED2AC",
"B 	c #C2620C",
"C 	c #FEB66C",
"D 	c #FEBA7C",
"E 	c #FEC28C",
"F 	c #FAD6A4",
"G 	c #FED2A4",
"H 	c #FEDAB4",
"I 	c #FEAE5C",
"J 	c #FAD29C",
"K 	c #C69E74",
"L 	c #FEBE7C",
"M 	c #FEE2C4",
"N 	c #E27204",
"O 	c #EABA84",
"P 	c #BE9674",
"Q 	c #BE9E7C",
"R 	c #620E04",
"S 	c #FEC68C",
"T 	c #DA6A04",
"U 	c #FA7A04",
"V 	c #F2BE8C",
"W 	c #D6A674",
"X 	c #BE9A74",
"Y 	c #F2C694",
"Z 	c #8E1204",
"` 	c #921A04",
" .	c #621A04",
"..	c #C25E04",
"+.	c #FAC284",
"@.	c #EEBA84",
"#.	c #D6A274",
"$.	c #BE926C",
"%.	c #BE966C",
"&.	c #FEDAA4",
"*.	c #8A0A04",
"=.	c #921204",
"-.	c #A22604",
";.	c #9E2E04",
">.	c #8A2E04",
",.	c #AE4E04",
"'.	c #D66604",
").	c #FE7E04",
"!.	c #FABA7C",
"~.	c #FECE94",
"{.	c #FED294",
"].	c #9A1A04",
"^.	c #AA2A04",
"/.	c #B63604",
"(.	c #B63E04",
"_.	c #B24604",
":.	c #BE5204",
"<.	c #DE6A04",
"[.	c #F6BA7C",
"}.	c #F6BE84",
"|.	c #FECA8C",
"1.	c #961604",
"2.	c #A62604",
"3.	c #B23204",
"4.	c #C64A04",
"5.	c #D25604",
"6.	c #E66604",
"7.	c #F27604",
"8.	c #FA7E04",
"9.	c #FEBE74",
"0.	c #FECE8C",
"a.	c #AA2E04",
"b.	c #BA3A04",
"c.	c #DE5E04",
"d.	c #EE6E04",
"e.	c #C24204",
"f.	c #CA4A04",
"g.	c #DA5A04",
"h.	c #F27204",
"i.	c #FEB264",
"j.	c #F6BA74",
"k.	c #E26204",
"l.	c #EA6A04",
"                                                                ",
"                              . . . . .                         ",
"                            . + + + + + .                       ",
"                            . @ # # # + .                       ",
"                            . + # # # @ .                       ",
"                            . + # # # + .                       ",
"                            . @ # # # @ .                       ",
"                            $ + # # # + .                       ",
"                        . . . @ # # # @ . . .                   ",
"                  . . . + + + + # # # + + + + .                 ",
"              . . % % . & # # # # # # * # # & .                 ",
"          . . = = = - - . & # # # # # # # & . + . .             ",
"      . . ; ; ; - > , ' ) . & # # # # # & . ! + @ ~ . .         ",
"    . @ @ @ - - { ] ^ / ' ) . & # # # & . ( _ ! : < [ } | .     ",
"      . . . . 1 2 2 3 4 5 ' ) . & # & . ( _ 6 7 8 9 0 . a b .   ",
"          . @ c d e f 3 g h 5 ) . & . ( _ i j k l 0 0 m .       ",
"        . + + ~ n o o f p ] h / ) . ( _ 7 q k r r s a a m .     ",
"      . + @ @ ~ t u v s s p g w x _ _ 7 8 y y z d y a a a m .   ",
"    . + + + + @ t ; = A o r r p B _ j A A C D E z F y s > m . . ",
"  . . + + + @ ~ t ; v G H - a 0 0 0 A + + + I t ; = J - . .     ",
"      . . + + ~ t ; = J H y a a . K . + + + + ~ t t . .         ",
"          . . @ C L = z H M m . N O P . @ + + + . . Q .         ",
"          . R . . ; S z c M . T U V W P . + . . X Y F .         ",
"      . . . Z `  .. . G F . ..N U +.@.#.$.. %.Y % F &..         ",
"  . . . . . *.=.-.;.>.. . ,.'.).).u !.W #.$.V ~.{.F F .         ",
"      . . . *.=.].^./.(._.:.<.U ).+.L [.}.[ |.~.~.~.J .         ",
"          . . 1.].2.3.(.4.5.6.7.8.n !.9.+.[ [ [ |.0.~..         ",
"              . . 2.a.b.4.5.c.d.U C t n !.9.+.+.[ . .           ",
"                  . . 3.e.f.g.6.h.i.C C n !.j.. .               ",
"                      . . f.g.k.d.I i.i.C . .                   ",
"                          . . c.l.+ + . .                       ",
"                              . . . .                           "};
