/* XPM */
static char * unzip_xpm[] = {
"32 32 7 1",
" 	c None",
".	c #c0c0c0",
"X	c white",
"o	c #f72820",
"O	c #808080",
"+	c #404040",
"@	c black",
"                                ",
"                                ",
"                                ",
"                                ",
"                                ",
"                                ",
"              ..    ...         ",
"             .XX.. .XXX..       ",
"            .XXXXX.XXXXXX..     ",
"  ooooooO  .XXXXX.XXXXXXXXX.    ",
"  oooooO  .XXXXX.XXXXXXXXXXXO   ",
"  ooooO  .XX++X.XXX..XXXXXXO.   ",
"  oooO  .XXXXX.XX+.XX..XXXO.@   ",
"  ooO  .XX++X.XXX.XXXXX..O.@.   ",
"  oO  .XXXXX.XX+.XXXXXXXX.@.    ",
"  O  .XX++X.XXX.XXXXXXXXXX..    ",
"    .XXXXX.XX+.XXXXXXXXXXXXXO   ",
"   .XX++X.XXX.XX++XXXXXXXXXO.   ",
"  .XXXXX.XX+.XXXXX++XXXXXXO.@   ",
" .XXXXX.XXX.XX++XXXX++XXXO.@.   ",
" OO.XX.++O.XXXXX++XXXXXXO.@.    ",
" .@OO.XXO.XX++XXXX++XXXO.@.     ",
"   .@OO..XXXXX++XXXXXXO.@.  O   ",
"     .O.XX++XXXX++XXXO.@.  Oo   ",
"      .XXXXX++XXXXXXO.@.  Ooo   ",
"     O.XXXXXXX++XXXO.@.  Oooo   ",
"     .OO.XXXXXXXXXO.@.  Ooooo   ",
"      .@+O.XXXXXXO.@.  Oooooo   ",
"        .@+O.XXXO.@.  Ooooooo   ",
"          .@+O.O.@.             ",
"            .@O.@.              ",
"              .@.               "};
