/* XPM */
static char * large_ark_xpm[] = {
"46 46 187 2",
"  	c None",
". 	c #020204",
"+ 	c #060204",
"@ 	c #FFA858",
"# 	c #FE0204",
"$ 	c #0A0204",
"% 	c #FEEAD4",
"& 	c #FEDEBC",
"* 	c #FECE9C",
"= 	c #FEBE84",
"- 	c #FEC694",
"; 	c #FEA654",
"> 	c #FEE6CC",
", 	c #800000",
"' 	c #1E0E04",
") 	c #FEB674",
"! 	c #F6E2CC",
"~ 	c #FAE2CC",
"{ 	c #F69A4C",
"] 	c #FAA254",
"^ 	c #FEAE64",
"/ 	c #FEAA5C",
"( 	c #EED6BC",
"_ 	c #F2DAC4",
": 	c #DA7A24",
"< 	c #E28634",
"[ 	c #EA8E3C",
"} 	c #F29644",
"| 	c #F69E4C",
"1 	c #D2966C",
"2 	c #AA7254",
"3 	c #FEB26C",
"4 	c #FEBE7C",
"5 	c #FEC68C",
"6 	c #C25E04",
"7 	c #D26204",
"8 	c #D26E1C",
"9 	c #DA7624",
"0 	c #E2822C",
"a 	c #E68A34",
"b 	c #C2723C",
"c 	c #B66634",
"d 	c #AA5E34",
"e 	c #B27A5C",
"f 	c #FECA9C",
"g 	c #FED2A4",
"h 	c #FED2AC",
"i 	c #BE5604",
"j 	c #C66204",
"k 	c #CE6A14",
"l 	c #D6761C",
"m 	c #DE7E2C",
"n 	c #E68634",
"o 	c #A2562C",
"p 	c #964E2C",
"q 	c #8E4224",
"r 	c #823A1C",
"s 	c #925E4C",
"t 	c #8A564C",
"u 	c #FEE2C4",
"v 	c #1E160C",
"w 	c #FED6AC",
"x 	c #C25A04",
"y 	c #C65E04",
"z 	c #CA660C",
"A 	c #D6721C",
"B 	c #9E522C",
"C 	c #924A24",
"D 	c #7A321C",
"E 	c #6A2614",
"F 	c #621E14",
"G 	c #FEF6EC",
"H 	c #16120C",
"I 	c #FEDABC",
"J 	c #C65604",
"K 	c #EE923C",
"L 	c #160204",
"M 	c #762E1C",
"N 	c #FEEED4",
"O 	c #2E261C",
"P 	c #FEBA74",
"Q 	c #FEC284",
"R 	c #863E24",
"S 	c #6E2A14",
"T 	c #FEEEDC",
"U 	c #6A5E44",
"V 	c #FEEADC",
"W 	c #CE6614",
"X 	c #FEDAB4",
"Y 	c #463A2C",
"Z 	c #FEC28C",
"` 	c #FED6B4",
" .	c #FEBA7C",
"..	c #FECEA4",
"+.	c #0A0604",
"@.	c #FECE94",
"#.	c #FEEACC",
"$.	c #FEFEFC",
"%.	c #FEB264",
"&.	c #FECA94",
"*.	c #422204",
"=.	c #D6AA7C",
"-.	c #0A0A04",
";.	c #FED29C",
">.	c #E27204",
",.	c #F2C28C",
"'.	c #BE9674",
").	c #1A120C",
"!.	c #BE9E7C",
"~.	c #FE7E04",
"{.	c #F2BE8C",
"].	c #BE966C",
"^.	c #D6B68C",
"/.	c #F2CA9C",
"(.	c #760E04",
"_.	c #F2BA84",
":.	c #D6A674",
"<.	c #BE9A74",
"[.	c #F2CE9C",
"}.	c #FEDEA4",
"|.	c #8E0E04",
"1.	c #861604",
"2.	c #7E1A04",
"3.	c #FEC684",
"4.	c #BE926C",
"5.	c #3E1E04",
"6.	c #D6AE84",
"7.	c #F2C694",
"8.	c #FEDAA4",
"9.	c #961604",
"0.	c #A22204",
"a.	c #962604",
"b.	c #8A2604",
"c.	c #FED6A4",
"d.	c #B65204",
"e.	c #D6A274",
"f.	c #F2C294",
"g.	c #FED69C",
"h.	c #860604",
"i.	c #921204",
"j.	c #9A1A04",
"k.	c #A62604",
"l.	c #AE2E04",
"m.	c #A23204",
"n.	c #963204",
"o.	c #AE4A04",
"p.	c #FEC27C",
"q.	c #FED294",
"r.	c #9E1E04",
"s.	c #AA2A04",
"t.	c #B23204",
"u.	c #BE3E04",
"v.	c #AE3E04",
"w.	c #A23E04",
"x.	c #AA4604",
"y.	c #F67A04",
"z.	c #F2B67C",
"A.	c #FECA8C",
"B.	c #7E0204",
"C.	c #8A0A04",
"D.	c #B63604",
"E.	c #C24204",
"F.	c #CE4E04",
"G.	c #BE4A04",
"H.	c #E66A04",
"I.	c #F27604",
"J.	c #FEBE74",
"K.	c #C64604",
"L.	c #D25204",
"M.	c #DA5A04",
"N.	c #E26204",
"O.	c #EE6E04",
"P.	c #AE3204",
"Q.	c #BA3A04",
"R.	c #C24604",
"S.	c #D65A04",
"T.	c #EA6A04",
"U.	c #F67604",
"V.	c #FEB66C",
"W.	c #CA4A04",
"X.	c #E66604",
"Y.	c #D65604",
"Z.	c #EA6E04",
"`.	c #DA5E04",
" +	c #EE7204",
".+	c #FEAE5C",
"++	c #DE5E04",
"                                                                                            ",
"                                        . + . . . . .                                       ",
"                                        . @ @ @ @ @ .                                       ",
"                                        . # # # # # .                                       ",
"                                        . . . . . . .                                       ",
"                                                                                            ",
"                                      . . $ $ $ $ + . .                                     ",
"                                      . @ @ @ @ @ @ @ .                                     ",
"                                      . # # # # # # # .                                     ",
"                                      . . . . . . . . .                                     ",
"                                                                                            ",
"                                    . . . . . . . . . . .                                   ",
"                                . . . @ @ @ @ @ @ @ @ @ .                                   ",
"                            . . % % . @ # # # # # # # @ .                                   ",
"                        . . & . . . . @ # # # # # # # @ . . + .                             ",
"                    . . * = . @ @ @ @ @ # # # # # # # @ @ @ @ @ .                           ",
"                . . = - = ; > . , # # # # # # # # # # # # # , . . .                         ",
"            . ' = ) = ; ! ~ { ] . , # # # # # # # # # # # , . ; ; ^ . .                     ",
"        . . ^ ; / ; ( _ : < [ } | . , # # # # # # # # # , . 1 2 ; 3 4 5 . .                 ",
"      . . . . / ( ( 6 7 8 9 0 a } | . , # # # # # # # , . b c d e 2 f f g & . .             ",
"            + h h i i i j k l m n [ { . , # # # # # , . b d o p q r s t u u % % .           ",
"            v ; ; w w x i y z A : n [ } . , # # # , . b o B C r D E F G G H . . . .         ",
"          . ; ; ; ^ 3 I I J x z 8 9 0 a K L , # , . b o p q r M E G G % % N O               ",
"        . ; / ; ; / 3 P Q > > i j k A m n [ . , . b B C R D S T T u % % N % % U             ",
"      . / ; / ; ; / 3 ) = 5 * V N 6 W A m a b . b C q r M & u h X & > % T % V % Y           ",
"    . ; ; ; ; / / / 3 P = Z f g ` T T z 8 8 C B q R D h X = Z - * w X > % N N N % .         ",
"  . ; ; ; ; ; ; ; / ^ ) = 5 f h X & > G G W q q r h h ; / 3  .= - ..g X u > V N +..         ",
"  . . ; / ; ; ; / / 3 ) 4 Z @.g ` u u % #.G G $.g / / ; ; / %. .4 5 * g ` u . .             ",
"      . . ; ; ; ; ; %.) 4 Z &.g w & > % % % *.=.. ; ; / ; ; ; ^ )  .Z &.. .                 ",
"          . -.; ; / ^ )  .Z f ;.` & u N N . >.,.'.)./ ; / ; ; / ^ ) . . !..                 ",
"              H H ; ^ )  .Q - * w & u % . j ~.{.=.].v ; ; / ; ; . . !.^./..                 ",
"              . (.. . 3 P Z &.g w I u . j >.~._.{.:.'.. / ; . . <.^.[.[.}..                 ",
"              . |.1.2.. . = - ..w I . 6 j ~.~.3._.:.4.4.. 5.].6.7./.8.8.8..                 ",
"          . . . |.9.0.a.b.+ +.* c.. d.6 >.~.~.3.5 _.e.4.4.=.f.7.c.g.c.8.}..                 ",
"      . . . . . h.i.j.k.l.m.n.. . o.d.7 ~.~.~.p.Q _.e.e._.{.@.q.;.g.c.c.c..                 ",
"      . . . . . h.|.9.r.s.t.u.v.w.x.J 7 y.~.~.p.4 z.z._.A.A.A.&.@.@.q.;.g..                 ",
"          . . . B.C.9.r.k.l.D.E.F.G.J H.I.~.~.J.J.4 4 p.3.3.A.A.@.@.q.;.q..                 ",
"              . . h.|.9.0.s.D.u.K.L.M.N.O.y.~.P P J.4 p.p.3.3.3.A.A.A.@.q..                 ",
"                  . . 9.r.k.P.Q.R.F.S.N.T.U.~.V.) P P 4 4 4 Q Q 5 A.A.. .                   ",
"                      . . k.s.D.u.W.L.M.X.O.U.3 V.P ) P P 4 p.p.3.. .                       ",
"                          . . t.Q.K.F.Y.N.Z.U.^ %.V.V.P P P J.. .                           ",
"                              . . u.W.Y.`.X. +.+^ %.%.3 V.. .                               ",
"                                  . . F.M.N.O./ / ^ %.. .                                   ",
"                                      . . ++X.; / . .                                       ",
"                                          . . . .                                           ",
"                                                                                            "};
