/* XPM */
/* Drawn for the K Desktop Environment */
/* See http://www.kde.org */
static char*kzip[]={
"16 16 5 1",
"a c #000000",
"# c #ff0000",
"b c #ff8000",
"c c #ffdca8",
". c None",
".......##.......",
"................",
"......####......",
"................",
".....a####a.....",
"...aa######a....",
".aabbc####bbaa..",
"..aaccc##bbbbaa.",
".accaacbbbbaaca.",
"acccccaabaaccca.",
".aaccccaacccaa..",
"..aaacabcaaaca..",
"..abbabbccccca..",
"..aabbbbcccaa...",
"....aabbcaa.....",
"......aaa......."};

